<svg width="24" height="24" viewBox="0 0 24 24" fill="none" xmlns="http://www.w3.org/2000/svg">
<path d="M22.3945 6C23.4156 7.76504 24 9.81428 24 12C24 14.1857 23.4156 16.235 22.3945 18H1.60547C0.584449 16.235 0 14.1857 0 12C2.54971e-07 9.81428 0.584448 7.76504 1.60547 6H22.3945Z" fill="#EEEEEE"/>
<path d="M22.7939 17.25C20.8471 21.2452 16.7468 23.9984 12.0039 24H11.9961C7.25319 23.9984 3.15292 21.2452 1.20605 17.25H22.7939Z" fill="#338AF3"/>
<path d="M12 0C16.7447 1.93718e-06 20.8465 2.75365 22.7939 6.75H1.20605C3.1535 2.75365 7.25532 0 12 0Z" fill="#338AF3"/>
<path d="M15.5866 12L14.1211 12.6894L14.9015 14.1087L13.3101 13.8043L13.1084 15.4119L12 14.2295L10.8915 15.4119L10.6899 13.8043L9.09845 14.1087L9.87883 12.6894L8.41333 12L9.87888 11.3106L9.09845 9.89135L10.6898 10.1958L10.8915 8.58813L12 9.77051L13.1085 8.58813L13.3101 10.1958L14.9015 9.89135L14.1211 11.3107L15.5866 12Z" fill="#FFC635"/>
</svg>
