<svg width="24" height="24" viewBox="0 0 24 24" fill="none" xmlns="http://www.w3.org/2000/svg">
<g clip-path="url(#clip0_41_805)">
<path d="M22.3945 6C23.4156 7.76504 24 9.81428 24 12C24 14.1857 23.4156 16.235 22.3945 18H1.60547C0.584449 16.235 0 14.1857 0 12C2.54971e-07 9.81428 0.584448 7.76504 1.60547 6H22.3945Z" fill="#FFDA44"/>
<path d="M22.7939 17.25C20.8471 21.2452 16.7468 23.9984 12.0039 24H11.9961C7.25319 23.9984 3.15292 21.2452 1.20605 17.25H22.7939Z" fill="#D80027"/>
<path d="M12 0C16.7447 1.93718e-06 20.8465 2.75365 22.7939 6.75H1.20605C3.1535 2.75365 7.25532 0 12 0Z" fill="#D80027"/>
<path d="M6.75 14.25H6V10.5H6.75V14.25ZM12.75 14.25H13.5V10.5H12.75V14.25Z" fill="#EEEEEE"/>
<path d="M5.71875 11.625C5.66902 11.625 5.62133 11.6448 5.58617 11.6799C5.551 11.7151 5.53125 11.7628 5.53125 11.8125C5.53125 11.8622 5.551 11.9099 5.58617 11.9451C5.62133 11.9802 5.66902 12 5.71875 12H13.7812C13.831 12 13.8787 11.9802 13.9138 11.9451C13.949 11.9099 13.9688 11.8622 13.9688 11.8125C13.9688 11.7628 13.949 11.7151 13.9138 11.6799C13.8787 11.6448 13.831 11.625 13.7812 11.625H5.71875ZM5.71875 12.75C5.66902 12.75 5.62133 12.7698 5.58617 12.8049C5.551 12.8401 5.53125 12.8878 5.53125 12.9375C5.53125 12.9872 5.551 13.0349 5.58617 13.0701C5.62133 13.1052 5.66902 13.125 5.71875 13.125H7.03125C7.08098 13.125 7.12867 13.1052 7.16383 13.0701C7.199 13.0349 7.21875 12.9872 7.21875 12.9375C7.21875 12.8878 7.199 12.8401 7.16383 12.8049C7.12867 12.7698 7.08098 12.75 7.03125 12.75H5.71875ZM12.4688 12.75C12.419 12.75 12.3713 12.7698 12.3362 12.8049C12.301 12.8401 12.2812 12.8878 12.2812 12.9375C12.2812 12.9872 12.301 13.0349 12.3362 13.0701C12.3713 13.1052 12.419 13.125 12.4688 13.125H13.7812C13.831 13.125 13.8787 13.1052 13.9138 13.0701C13.949 13.0349 13.9688 12.9872 13.9688 12.9375C13.9688 12.8878 13.949 12.8401 13.9138 12.8049C13.8787 12.7698 13.831 12.75 13.7812 12.75H12.4688Z" fill="#D80027"/>
<path d="M12 12.75H11.2344C11.7032 13.0249 12 13.4261 12 13.875C12 14.7034 10.9926 15.375 9.75 15.375C8.50736 15.375 7.5 14.7034 7.5 13.875C7.5 13.0466 8.50736 12.375 9.75 12.375V10.5H12V12.75ZM9.1875 7.875C9.42188 7.875 9.60938 7.96875 9.75 8.15625C9.83564 8.05907 9.94498 7.98572 10.0674 7.94336C10.1899 7.90102 10.3217 7.89143 10.4492 7.91504C10.5767 7.93865 10.6957 7.99475 10.7949 8.07812C10.8942 8.16155 10.9704 8.2691 11.0156 8.39062C11.1565 8.34183 11.309 8.33591 11.4531 8.37402C11.5972 8.41216 11.7269 8.49249 11.8252 8.60449C11.9234 8.71642 11.9857 8.85528 12.0049 9.00293C12.024 9.15079 11.9983 9.30123 11.9316 9.43457C11.865 9.56785 11.7605 9.6785 11.6309 9.75195C11.5011 9.8254 11.3518 9.85812 11.2031 9.84668C11.0547 9.83516 10.9127 9.77984 10.7959 9.6875C10.679 9.59508 10.5923 9.47001 10.5469 9.32812C10.4102 9.37744 10.2616 9.38583 10.1201 9.35254C9.97884 9.3192 9.85026 9.2456 9.75 9.14062C9.64974 9.2456 9.52116 9.3192 9.37988 9.35254C9.23841 9.38583 9.08984 9.37744 8.95312 9.32812C8.85938 9.65625 8.57812 9.84375 8.25 9.84375C7.82812 9.84375 7.5 9.51563 7.5 9.09375C7.5 8.67188 7.82813 8.34375 8.25 8.34375L8.48438 8.39062C8.57812 8.10937 8.85938 7.875 9.1875 7.875ZM8.25 8.71875C8.0625 8.71875 7.875 8.90625 7.875 9.09375C7.875 9.32812 8.0625 9.46875 8.25 9.46875C8.4375 9.46875 8.625 9.32812 8.625 9.14062L8.4375 8.76562L8.25 8.71875ZM11.0625 8.76562L10.875 9.14062C10.875 9.32812 11.0625 9.46875 11.25 9.46875C11.4844 9.46875 11.625 9.32812 11.625 9.09375C11.625 8.90625 11.4844 8.71875 11.25 8.71875L11.0625 8.76562ZM9.1875 8.25C9 8.25 8.8125 8.4375 8.8125 8.625C8.8125 8.85938 9 9 9.1875 9C9.42188 9 9.5625 8.85938 9.5625 8.625C9.5625 8.4375 9.42188 8.25 9.1875 8.25ZM10.3125 8.25C10.125 8.25 9.9375 8.4375 9.9375 8.625C9.9375 8.85938 10.125 9 10.3125 9C10.5469 9 10.6875 8.85938 10.6875 8.625C10.6875 8.4375 10.5469 8.25 10.3125 8.25Z" fill="#EEEEEE"/>
<path d="M9.375 7.5H10.125V9H9.375V7.5Z" fill="#FF9811"/>
<path d="M12 13.875C12 14.1734 11.8819 14.4599 11.6709 14.6709C11.4599 14.8819 11.1734 15 10.875 15C10.5766 15 10.2901 14.8819 10.0791 14.6709C9.86812 14.4599 9.75 14.1734 9.75 13.875V12.75H12V13.875ZM9.75 12.75H7.5V10.5H9.75V12.75ZM10.875 10.875C11.1339 10.875 11.3438 11.0849 11.3438 11.3438V11.9062C11.3438 12.1651 11.1339 12.375 10.875 12.375C10.6161 12.375 10.4062 12.1651 10.4062 11.9062V11.3438C10.4062 11.0849 10.6161 10.875 10.875 10.875ZM6.375 9C6.58211 9 6.75 9.16789 6.75 9.375V9.75C6.75 9.95711 6.58211 10.125 6.375 10.125C6.16789 10.125 6 9.95711 6 9.75V9.375C6 9.16789 6.16789 9 6.375 9ZM9.75 8.625C10.7812 8.625 11.625 9.14062 11.625 9.75L11.25 10.125H8.25L7.875 9.75C7.875 9.14062 8.71875 8.625 9.75 8.625ZM13.125 9C13.3321 9 13.5 9.16789 13.5 9.375V9.75C13.5 9.95711 13.3321 10.125 13.125 10.125C12.9179 10.125 12.75 9.95711 12.75 9.75V9.375C12.75 9.16789 12.9179 9 13.125 9Z" fill="#D80027"/>
<path d="M6.75 14.25C6.95711 14.25 7.125 14.4179 7.125 14.625C7.125 14.8321 6.95711 15 6.75 15H6C5.79289 15 5.625 14.8321 5.625 14.625C5.625 14.4179 5.79289 14.25 6 14.25H6.75ZM13.5 14.25C13.7071 14.25 13.875 14.4179 13.875 14.625C13.875 14.8321 13.7071 15 13.5 15H12.75C12.5429 15 12.375 14.8321 12.375 14.625C12.375 14.4179 12.5429 14.25 12.75 14.25H13.5ZM8.15625 13.125L8.39062 12.75H8.85938L9.09375 13.125L9.32812 12.75H9.75V13.875C9.75 14.25 9.60938 14.5312 9.32812 14.7656L9.09375 14.4844L8.85938 14.9531C8.7054 14.9909 8.5446 14.9909 8.39062 14.9531L8.15625 14.4844L7.92188 14.7656C7.6875 14.5312 7.5 14.25 7.5 13.875V12.75H7.92188L8.15625 13.125ZM9.375 10.875V11.25H9V12H9.375V12.375H7.875V12H8.25V11.25H7.875V10.875H9.375ZM6.75 9.75C6.95711 9.75 7.125 9.91789 7.125 10.125C7.125 10.3321 6.95711 10.5 6.75 10.5H6C5.79289 10.5 5.625 10.3321 5.625 10.125C5.625 9.91789 5.79289 9.75 6 9.75H6.75ZM11.25 10.5H8.25V10.125H11.25V10.5ZM13.5 9.75C13.7071 9.75 13.875 9.91789 13.875 10.125C13.875 10.3321 13.7071 10.5 13.5 10.5H12.75C12.5429 10.5 12.375 10.3321 12.375 10.125C12.375 9.91789 12.5429 9.75 12.75 9.75H13.5Z" fill="#FF9811"/>
<path d="M7.92188 12.75V14.7656C8.0619 14.8628 8.22219 14.9269 8.39062 14.9531V12.75H7.92188ZM8.85938 12.75V14.9531C9.02781 14.9269 9.1881 14.8628 9.32812 14.7656V12.75H8.85938Z" fill="#D80027"/>
<path d="M8.71875 9.1875C8.87408 9.1875 9 9.31342 9 9.46875C9 9.62408 8.87408 9.75 8.71875 9.75C8.56342 9.75 8.4375 9.62408 8.4375 9.46875C8.4375 9.31342 8.56342 9.1875 8.71875 9.1875ZM9.75 9.1875C9.90533 9.1875 10.0312 9.31342 10.0312 9.46875C10.0312 9.62408 9.90533 9.75 9.75 9.75C9.59467 9.75 9.46875 9.62408 9.46875 9.46875C9.46875 9.31342 9.59467 9.1875 9.75 9.1875ZM10.7812 9.1875C10.9366 9.1875 11.0625 9.31342 11.0625 9.46875C11.0625 9.62408 10.9366 9.75 10.7812 9.75C10.6259 9.75 10.5 9.62408 10.5 9.46875C10.5 9.31342 10.6259 9.1875 10.7812 9.1875Z" fill="#FFDA44"/>
<path d="M6.75 15C6.95711 15 7.125 15.1679 7.125 15.375C7.125 15.5821 6.95711 15.75 6.75 15.75H6C5.79289 15.75 5.625 15.5821 5.625 15.375C5.625 15.1679 5.79289 15 6 15H6.75ZM13.5 15C13.7071 15 13.875 15.1679 13.875 15.375C13.875 15.5821 13.7071 15.75 13.5 15.75H12.75C12.5429 15.75 12.375 15.5821 12.375 15.375C12.375 15.1679 12.5429 15 12.75 15H13.5ZM9.75 12C10.1642 12 10.5 12.3358 10.5 12.75C10.5 13.1642 10.1642 13.5 9.75 13.5C9.33579 13.5 9 13.1642 9 12.75C9 12.3358 9.33579 12 9.75 12Z" fill="#0052B4"/>
</g>
<defs>
<clipPath id="clip0_41_805">
<rect width="24" height="24" fill="white"/>
</clipPath>
</defs>
</svg>
