<svg width="24" height="24" viewBox="0 0 24 24" fill="none" xmlns="http://www.w3.org/2000/svg">
<path d="M23.5876 15.1304C23.8565 14.1324 24 13.083 24 12L23.5876 8.86959C23.2868 7.75333 22.829 6.70147 22.2393 5.73914L19.4709 2.60869C17.4223 0.976816 14.8277 0.00120207 12.0052 0H11.9948C9.17234 0.00120158 6.57774 0.976815 4.5291 2.60869L1.76073 5.73914C1.17105 6.70147 0.713227 7.75333 0.412405 8.86959L0 12L1.13056e-06 12.0053C0.000465378 13.0864 0.143897 14.1341 0.412415 15.1304L1.76073 18.2609C2.49517 19.4594 3.43415 20.5191 4.52911 21.3913L12 24L19.4709 21.3913C20.5658 20.5191 21.5048 19.4594 22.2393 18.2609L23.5876 15.1304Z" fill="#EEEEEE"/>
<path d="M23.5876 8.86957C23.8565 9.86757 24 10.917 24 12H0C0 10.917 0.143461 9.86757 0.412417 8.86957H23.5876Z" fill="#D80027"/>
<path d="M19.4709 2.6087C20.5658 3.48091 21.5048 4.54058 22.2393 5.73916H1.76073C2.49517 4.54058 3.43416 3.48091 4.52911 2.6087H19.4709Z" fill="#D80027"/>
<path d="M22.2393 18.2609C22.829 17.2986 23.2868 16.2467 23.5876 15.1304H0.412404C0.713226 16.2467 1.17105 17.2986 1.76072 18.2609H22.2393Z" fill="#D80027"/>
<path d="M19.4709 21.3913H4.5291C6.57651 23.0222 9.16926 23.9977 11.9897 24H12.0103C14.8307 23.9977 17.4235 23.0222 19.4709 21.3913Z" fill="#D80027"/>
<path d="M0 11.5118C0.256135 5.11073 5.52635 0 11.9902 0C11.9935 0 11.9967 1.29233e-06 12 3.87651e-06V12H0V11.5118Z" fill="#0052B4"/>
<path d="M2.50403 9.34375H3.81165L2.75403 10.1123L3.15833 11.3564L2.09973 10.5879L1.04211 11.3564L1.44641 10.1123L0.387817 9.34375H1.69543L2.09973 8.09961L2.50403 9.34375ZM6.40442 9.34375H7.71204L6.65344 10.1123L7.05774 11.3564L6.00012 10.5879L4.94153 11.3564L5.34583 10.1123L4.28821 9.34375H5.59583L6.00012 8.09961L6.40442 9.34375ZM10.3038 9.34375H11.6115L10.5538 10.1123L10.9581 11.3564L9.89954 10.5879L8.84192 11.3564L9.24622 10.1123L8.18762 9.34375H9.49622L9.89954 8.09961L10.3038 9.34375ZM2.50403 5.44336H3.81165L2.75403 6.21289L3.15833 7.45605L2.09973 6.6875L1.04211 7.45605L1.38293 6.4082C1.66118 5.881 1.97745 5.37748 2.32825 4.90039L2.50403 5.44336ZM6.40442 5.44336H7.71204L6.65344 6.21289L7.05774 7.45605L6.00012 6.6875L4.94153 7.45605L5.34583 6.21289L4.28821 5.44336H5.59583L6.00012 4.2002L6.40442 5.44336ZM10.3038 5.44336H11.6115L10.5538 6.21289L10.9581 7.45605L9.89954 6.6875L8.84192 7.45605L9.24622 6.21289L8.18762 5.44336H9.49622L9.89954 4.2002L10.3038 5.44336ZM6.40442 1.54395H7.71204L6.65344 2.3125L7.05774 3.55664L6.00012 2.78711L4.94153 3.55664L5.34583 2.3125L5.13684 2.16016C5.52861 1.88639 5.93642 1.63446 6.36047 1.4082L6.40442 1.54395ZM10.3038 1.54395H11.6115L10.5538 2.3125L10.9581 3.55664L9.89954 2.78711L8.84192 3.55664L9.24622 2.3125L8.18762 1.54395H9.49622L9.89954 0.299805L10.3038 1.54395Z" fill="#EEEEEE"/>
</svg>
