<svg width="24" height="24" viewBox="0 0 24 24" fill="none" xmlns="http://www.w3.org/2000/svg">
<path d="M6.375 22.6027C8.05276 23.4946 9.96736 24 12 24C14.0326 24 15.9472 23.4946 17.625 22.6027L17.625 1.39733C15.9472 0.505375 14.0326 -1.57027e-07 12 -2.45877e-07C9.96736 -3.34726e-07 8.05276 0.505374 6.375 1.39733L6.375 22.6027Z" fill="#EEEEEE"/>
<path d="M7.875 23.2722C3.27964 21.5901 -7.19063e-07 17.178 -4.92724e-07 12C-2.66384e-07 6.82195 3.27964 2.4099 7.875 0.727783L7.875 23.2722Z" fill="#002266"/>
<path d="M16.125 23.2722L16.125 0.727783C20.7204 2.4099 24 6.82195 24 12C24 17.178 20.7204 21.5901 16.125 23.2722Z" fill="#D80027"/>
</svg>
