<svg width="324" height="77" viewBox="0 0 324 77" fill="none" xmlns="http://www.w3.org/2000/svg">
<path d="M44.8974 70.5696C38.797 71.6628 32.5823 70.9782 26.9644 68.7698C27.2775 68.7293 27.5907 68.6815 27.9038 68.6262C28.4232 68.5342 28.9648 68.4091 29.5579 68.2508C32.1808 67.5294 34.5532 66.278 36.6272 64.5297C41.6888 60.2601 44.1091 53.5575 42.9413 47.0354C42.5803 45.0257 42.6577 43.0014 43.1734 41.0175C43.3907 40.1856 43.6891 39.3649 44.0538 38.5846C44.9159 36.7516 46.1831 35.0953 47.723 33.7997C49.6091 32.2096 51.8931 31.1385 54.3244 30.7042C56.7558 30.2699 59.2682 30.4797 61.5927 31.3189C63.5193 32.0145 65.2397 33.0967 66.7022 34.5395C68.7836 36.5896 70.1577 39.1919 70.6734 42.0738C71.0823 44.3522 70.9202 46.7115 70.2056 48.8978C70.154 49.0634 70.1098 49.1886 70.0619 49.3174C68.091 54.7648 64.7203 59.6049 60.307 63.3261C55.8864 67.0546 50.5595 69.5575 44.9011 70.5733L44.8974 70.5696Z" fill="url(#paint0_linear_249_2363)"/>
<path d="M50.2279 7.16996C44.8016 5.20816 38.9222 4.71495 33.2269 5.7345L33.0059 5.77498C30.663 6.23139 28.46 7.28774 26.6328 8.82995L26.4228 9.00662C24.6399 10.5783 23.2731 12.5769 22.4664 14.8037C22.308 15.2491 22.1827 15.6539 22.0796 16.0551C21.5638 18.0353 21.4865 20.0597 21.8475 22.073C22.2122 24.1158 23.0374 26.0518 24.2346 27.7376C26.8833 23.987 30.9503 21.2302 35.8314 20.3578C42.3813 19.1837 48.7286 21.705 52.7698 26.4125C53.0203 26.3573 53.2671 26.2984 53.5213 26.2543C56.7336 25.6801 60.0528 25.9598 63.1251 27.064C65.6744 27.9842 67.9473 29.416 69.8776 31.3189C70.5076 31.9372 71.086 32.5924 71.6127 33.2844C69.8371 21.7086 61.9352 11.3954 50.2316 7.17732L50.2279 7.16996Z" fill="url(#paint1_linear_249_2363)"/>
<path d="M21.2065 41.3487C20.6318 38.1392 20.9523 34.9848 21.9728 32.1176C21.8107 31.9372 21.6412 31.7642 21.4865 31.5765C19.383 29.081 17.9684 26.0666 17.3937 22.8644C16.9185 20.2069 17.018 17.5311 17.6958 14.9251C17.8284 14.3988 17.9942 13.8577 18.2042 13.2688C18.3147 12.967 18.4289 12.6689 18.5541 12.3744C9.3887 19.6843 4.39339 31.6759 6.60002 43.9583C7.62045 49.6487 10.1292 54.9856 13.8683 59.4025C13.953 59.5055 14.0451 59.6086 14.1372 59.708L14.174 59.7484C15.7176 61.4563 17.6737 62.7703 19.8398 63.5506C22.1606 64.3898 24.673 64.6033 27.1044 64.1689C27.4986 64.099 27.9148 64.0033 28.3679 63.8818C30.3388 63.3408 32.1328 62.3912 33.7022 61.0698C35.312 59.7116 36.5645 58.0222 37.4155 56.1598C29.4842 55.4531 22.6801 49.5603 21.2065 41.3487Z" fill="url(#paint2_linear_249_2363)"/>
<path d="M114.287 30.3766C112.33 27.226 108.669 25.301 104.513 25.301C97.5472 25.301 92.2977 30.4834 92.2977 37.3552C92.2977 44.227 97.5472 49.5088 104.513 49.5088C108.647 49.5088 112.36 47.5212 114.235 44.3779V44.8122C114.235 55.5341 105.416 55.8432 104.414 55.8432C101.412 55.8432 98.5529 54.5587 96.5636 52.3171L96.3757 52.1073L95.0716 53.8041L95.2005 53.9477C97.5472 56.5499 100.837 57.9817 104.462 57.9817C105.442 57.9817 108.864 57.8161 111.837 55.6997C115.012 53.4398 116.626 49.7922 116.626 44.8638V25.8089H114.283V30.3766H114.287ZM114.235 37.3552C114.235 42.7658 109.943 47.1679 104.664 47.1679C98.9433 47.1679 94.7916 43.0418 94.7916 37.3552C94.7916 31.6685 99.0133 27.6419 104.613 27.6419C110.212 27.6419 114.231 31.9078 114.231 37.3552H114.235Z" fill="white"/>
<path d="M143.636 30.7189C141.625 27.4026 137.867 25.3047 133.815 25.3047C126.738 25.3047 121.599 30.7153 121.599 38.1686C121.599 45.622 126.849 51.0326 133.815 51.0326C137.889 51.0326 141.713 48.8168 143.636 45.4343V50.5283H146.03V25.8126H143.636V30.7189ZM143.636 38.1686C143.636 44.0688 139.388 48.6917 133.966 48.6917C128.245 48.6917 124.093 44.2638 124.093 38.1686C124.093 32.0734 128.315 27.6456 133.914 27.6456C139.514 27.6456 143.636 32.2685 143.636 38.1686Z" fill="white"/>
<path d="M154.61 16.6771H152.216V50.5247H154.61V16.6771Z" fill="white"/>
<path d="M181.565 30.7189C179.554 27.4026 175.796 25.3047 171.744 25.3047C164.667 25.3047 159.528 30.7153 159.528 38.1686C159.528 45.622 164.778 51.0326 171.744 51.0326C175.818 51.0326 179.642 48.8168 181.565 45.4343V50.5283H183.959V25.8126H181.565V30.7189ZM181.565 38.1686C181.565 44.0688 177.317 48.6917 171.895 48.6917C166.174 48.6917 162.022 44.2638 162.022 38.1686C162.022 32.0734 166.244 27.6456 171.843 27.6456C177.443 27.6456 181.565 32.2685 181.565 38.1686Z" fill="white"/>
<path d="M222.157 46.0379C222.025 46.3287 221.855 46.7262 221.719 47.0427C221.605 46.7593 221.457 46.4097 221.31 46.0858L211.599 25.8126H206.265L198.934 35.0805C198.676 35.4044 198.382 35.8571 198.194 36.159C197.995 35.8608 197.697 35.4044 197.468 35.0805L190.086 25.8089H187.109L196.636 37.8631L186.704 50.5247H189.68L197.424 40.7893C197.682 40.4359 197.973 39.9537 198.157 39.6335C198.36 39.9537 198.673 40.4396 198.931 40.7966L206.6 50.4363L206.67 50.5247H209.592L199.712 37.8631L209.102 25.9193L220.536 49.5345L219.973 50.7529C217.788 55.3243 215.81 55.696 213.633 55.696H213.401V57.9854H213.633C216.654 57.9854 219.184 57.5253 221.969 51.7135L234.263 25.8126H231.717L222.157 46.0379Z" fill="white"/>
<path d="M250.107 24.8483C246.084 24.8483 242.776 26.3684 240.894 29.0516V25.8126H236.723V57.9854H241.048V46.7851C242.934 49.4978 246.187 51.0363 250.107 51.0363C256.896 51.0363 262.017 45.3975 262.017 37.9183C262.017 30.4392 256.896 24.8519 250.107 24.8519V24.8483ZM257.592 37.9147C257.592 43.0713 254.082 46.8145 249.241 46.8145C244.401 46.8145 241.045 42.9057 241.045 37.9147C241.045 32.9237 244.644 29.0663 249.241 29.0663C254.078 29.0663 257.592 32.7875 257.592 37.9147Z" fill="white"/>
<path d="M285.612 29.0957C283.726 26.3831 280.469 24.8446 276.553 24.8446C269.764 24.8446 264.643 30.4834 264.643 37.9625C264.643 45.4416 269.764 51.0289 276.553 51.0289C280.495 51.0289 283.748 49.4941 285.612 46.7888V50.5247H289.937V25.8089H285.612V29.0957ZM285.612 37.9662C285.612 42.9277 282.013 46.8145 277.415 46.8145C272.578 46.8145 269.064 43.0934 269.064 37.9662C269.064 32.839 272.575 29.0663 277.415 29.0663C282.256 29.0663 285.612 32.9752 285.612 37.9662Z" fill="white"/>
<path d="M314.04 25.8126C314.04 25.8126 306.44 43.789 306.031 44.4184C305.711 43.7964 305.339 42.8725 304.959 42.0812L297.382 25.9046L297.338 25.8163H292.81L303.828 48.6733L303.32 49.6928C301.651 53.2263 300.049 53.8741 297.489 53.8741H297.256V57.9891H297.489C300.565 57.9891 304.075 57.4959 306.79 51.6105L318.52 25.8126H314.044H314.04Z" fill="white"/>
<defs>
<linearGradient id="paint0_linear_249_2363" x1="30.3938" y1="72.2008" x2="67.3621" y2="35.203" gradientUnits="userSpaceOnUse">
<stop stop-color="#4D3B8F"/>
<stop offset="0.1" stop-color="#5F3C8F"/>
<stop offset="0.29" stop-color="#8F3F8F"/>
<stop offset="0.56" stop-color="#DC448F"/>
<stop offset="0.6" stop-color="#E74590"/>
<stop offset="0.67" stop-color="#E7498A"/>
<stop offset="0.77" stop-color="#E95479"/>
<stop offset="0.88" stop-color="#EC675E"/>
<stop offset="1" stop-color="#F0813A"/>
</linearGradient>
<linearGradient id="paint1_linear_249_2363" x1="33.3153" y1="36.8048" x2="58.773" y2="11.329" gradientUnits="userSpaceOnUse">
<stop stop-color="#4D3B8F"/>
<stop offset="0.1" stop-color="#5F3C8F"/>
<stop offset="0.29" stop-color="#8F3F8F"/>
<stop offset="0.56" stop-color="#DC448F"/>
<stop offset="0.6" stop-color="#E74590"/>
<stop offset="0.67" stop-color="#E7498A"/>
<stop offset="0.77" stop-color="#E95479"/>
<stop offset="0.88" stop-color="#EC675E"/>
<stop offset="1" stop-color="#F0813A"/>
</linearGradient>
<linearGradient id="paint2_linear_249_2363" x1="8.55463" y1="54.1651" x2="34.447" y2="28.2558" gradientUnits="userSpaceOnUse">
<stop stop-color="#4D3B8F"/>
<stop offset="0.1" stop-color="#5F3C8F"/>
<stop offset="0.29" stop-color="#8F3F8F"/>
<stop offset="0.56" stop-color="#DC448F"/>
<stop offset="0.6" stop-color="#E74590"/>
<stop offset="0.67" stop-color="#E7498A"/>
<stop offset="0.77" stop-color="#E95479"/>
<stop offset="0.88" stop-color="#EC675E"/>
<stop offset="1" stop-color="#F0813A"/>
</linearGradient>
</defs>
</svg>
