<svg width="296" height="176" viewBox="0 0 296 176" fill="none" xmlns="http://www.w3.org/2000/svg">
<path d="M156.321 99.1406C147.716 100.688 138.954 99.7181 131.034 96.5859C131.476 96.5304 131.917 96.4611 132.359 96.3826C133.096 96.2486 133.855 96.0777 134.692 95.8513C138.388 94.8303 141.738 93.0563 144.66 90.5755C151.798 84.5236 155.212 75.0299 153.56 65.7904C153.049 62.94 153.16 60.0711 153.887 57.2622C154.195 56.0842 154.614 54.9246 155.129 53.8159C156.344 51.2196 158.13 48.8727 160.302 47.034C162.962 44.7796 166.183 43.2643 169.611 42.6452C173.04 42.0262 176.583 42.3311 179.86 43.5138C182.575 44.4978 185 46.0362 187.062 48.0781C189.998 50.9793 191.935 54.6705 192.662 58.7498C193.238 61.979 193.012 65.3191 192.004 68.419C191.931 68.65 191.871 68.8348 191.802 69.015C189.022 76.7346 184.268 83.5904 178.047 88.8616C171.811 94.142 164.301 97.6946 156.321 99.1314V99.1406Z" fill="white"/>
<path d="M163.841 9.31348C156.188 6.53699 147.895 5.83478 139.865 7.27616L139.552 7.33159C136.248 7.97836 133.142 9.47517 130.569 11.6603L130.27 11.9098C127.753 14.1365 125.825 16.9685 124.693 20.1192C124.467 20.7521 124.292 21.3249 124.15 21.8885C123.427 24.6974 123.317 27.5663 123.823 30.4167C124.338 33.3087 125.498 36.0528 127.191 38.4459C130.928 33.1285 136.662 29.2248 143.542 27.9867C152.778 26.3235 161.728 29.8946 167.426 36.5656C167.775 36.4871 168.13 36.4039 168.484 36.3392C173.012 35.5261 177.697 35.9235 182.027 37.4896C185.621 38.7923 188.824 40.8204 191.549 43.5184C192.437 44.3961 193.251 45.3247 193.997 46.3041C191.489 29.9039 180.352 15.2915 163.845 9.31348H163.841Z" fill="white"/>
<path d="M122.916 57.7427C122.106 53.1968 122.557 48.7249 123.998 44.6641C123.768 44.41 123.533 44.1605 123.312 43.8972C120.348 40.3631 118.351 36.0944 117.537 31.5531C116.865 27.788 117.007 23.9952 117.96 20.304C118.149 19.5556 118.383 18.7933 118.678 17.9571C118.834 17.5321 118.995 17.1071 119.175 16.6913C106.253 27.0535 99.2073 44.0404 102.318 61.4432C103.759 69.5047 107.293 77.0673 112.567 83.3271C112.686 83.4749 112.815 83.6181 112.944 83.7567L112.995 83.8122C115.171 86.2329 117.932 88.0947 120.983 89.1988C124.255 90.3861 127.799 90.691 131.227 90.072C131.779 89.9703 132.373 89.8364 133.008 89.6654C135.788 88.8985 138.319 87.5542 140.532 85.6786C142.806 83.7521 144.568 81.3637 145.769 78.7212C134.582 77.7233 124.987 69.3707 122.912 57.7381L122.916 57.7427Z" fill="white"/>
<path d="M33.9895 134.805C31.5459 130.851 26.9716 128.435 21.7807 128.435C13.0785 128.435 6.52086 134.939 6.52086 143.564C6.52086 152.19 13.0785 158.819 21.7807 158.819C26.944 158.819 31.5827 156.324 33.9251 152.379V152.924C33.9251 166.382 22.9082 166.77 21.6564 166.77C17.9059 166.77 14.3349 165.157 11.8498 162.344L11.6151 162.081L9.98608 164.21L10.1471 164.39C13.0785 167.657 17.188 169.454 21.7163 169.454C22.9404 169.454 27.2155 169.246 30.9292 166.59C34.8961 163.753 36.9117 159.175 36.9117 152.989V129.072H33.9849V134.805H33.9895ZM33.9251 143.564C33.9251 150.356 28.5639 155.881 21.9694 155.881C14.8227 155.881 9.63634 150.702 9.63634 143.564C9.63634 136.427 14.9101 131.373 21.9049 131.373C28.8998 131.373 33.9205 136.727 33.9205 143.564H33.9251Z" fill="white"/>
<path d="M70.6527 135.23C68.14 131.068 63.4461 128.435 58.3841 128.435C49.5438 128.435 43.1242 135.226 43.1242 144.581C43.1242 153.936 49.6819 160.727 58.3841 160.727C63.4737 160.727 68.2505 157.946 70.6527 153.7V160.094H73.6439V129.072H70.6527V135.23ZM70.6527 144.581C70.6527 151.986 65.3467 157.789 58.5727 157.789C51.426 157.789 46.2397 152.231 46.2397 144.581C46.2397 136.93 51.5135 131.373 58.5083 131.373C65.5032 131.373 70.6527 137.175 70.6527 144.581Z" fill="white"/>
<path d="M84.3617 117.611H81.3704V160.094H84.3617V117.611Z" fill="white"/>
<path d="M118.034 135.23C115.521 131.068 110.827 128.435 105.765 128.435C96.9248 128.435 90.5052 135.226 90.5052 144.581C90.5052 153.936 97.0629 160.727 105.765 160.727C110.855 160.727 115.631 157.946 118.034 153.7V160.094H121.025V129.072H118.034V135.23ZM118.034 144.581C118.034 151.986 112.728 157.789 105.954 157.789C98.807 157.789 93.6206 152.231 93.6206 144.581C93.6206 136.93 98.8944 131.373 105.889 131.373C112.884 131.373 118.034 137.175 118.034 144.581Z" fill="white"/>
<path d="M168.737 154.458C168.571 154.823 168.36 155.322 168.189 155.719C168.047 155.363 167.863 154.925 167.679 154.518L155.548 129.072H148.885L139.727 140.705C139.405 141.111 139.037 141.68 138.802 142.058C138.553 141.684 138.181 141.111 137.895 140.705L128.673 129.068H124.955L136.855 144.197L124.449 160.089H128.167L137.84 147.87C138.162 147.427 138.526 146.821 138.756 146.42C139.009 146.821 139.4 147.431 139.722 147.879L149.303 159.979L149.391 160.089H153.04L140.698 144.197L152.428 129.206L166.712 158.847L166.008 160.376C163.279 166.114 160.808 166.58 158.088 166.58H157.798V169.454H158.088C161.862 169.454 165.023 168.876 168.502 161.582L183.859 129.072H180.679L168.737 154.458Z" fill="white"/>
<path d="M203.652 127.862C198.626 127.862 194.494 129.77 192.142 133.138V129.072H186.933V169.454H192.336V155.396C194.692 158.801 198.755 160.732 203.652 160.732C212.133 160.732 218.529 153.654 218.529 144.267C218.529 134.879 212.133 127.866 203.652 127.866V127.862ZM213.007 144.262C213.007 150.734 208.622 155.433 202.575 155.433C196.528 155.433 192.336 150.526 192.336 144.262C192.336 137.998 196.832 133.156 202.575 133.156C208.617 133.156 213.007 137.827 213.007 144.262Z" fill="white"/>
<path d="M248.009 133.198C245.653 129.793 241.585 127.862 236.693 127.862C228.212 127.862 221.815 134.939 221.815 144.327C221.815 153.714 228.212 160.727 236.693 160.727C241.617 160.727 245.681 158.801 248.009 155.405V160.094H253.412V129.072H248.009V133.198ZM248.009 144.327C248.009 150.554 243.513 155.433 237.77 155.433C231.728 155.433 227.337 150.762 227.337 144.327C227.337 137.891 231.723 133.156 237.77 133.156C243.817 133.156 248.009 138.062 248.009 144.327Z" fill="white"/>
<path d="M283.522 129.072C283.522 129.072 274.028 151.635 273.517 152.425C273.117 151.645 272.652 150.485 272.178 149.492L262.712 129.188L262.657 129.077H257.001L270.765 157.766L270.13 159.045C268.046 163.48 266.044 164.293 262.846 164.293H262.556V169.458H262.846C266.688 169.458 271.074 168.839 274.465 161.452L289.118 129.072H283.526H283.522Z" fill="white"/>
</svg>
