<svg width="24" height="24" viewBox="0 0 24 24" fill="none" xmlns="http://www.w3.org/2000/svg">
<path d="M18 22.3945C16.235 23.4156 14.1857 24 12 24C9.81428 24 7.76504 23.4156 6 22.3945L6 1.60547C7.76504 0.584448 9.81428 -3.57809e-07 12 -2.62268e-07C14.1857 8.82433e-08 16.235 0.584448 18 1.60547L18 22.3945Z" fill="#EEEEEE"/>
<path d="M6.75 22.7939C2.75482 20.8471 0.00161866 16.7468 -4.71989e-07 12.0039L-4.71648e-07 11.9961C0.00162051 7.25319 2.75482 3.15292 6.75 1.20605L6.75 22.7939Z" fill="#496E2D"/>
<path d="M24 12C24 16.7447 21.2464 20.8465 17.25 22.7939L17.25 1.20605C21.2464 3.1535 24 7.25532 24 12Z" fill="#D80027"/>
<path d="M11.9999 12.9844V13.4531H12.5624L13.0311 12.4219L11.9999 12.9844Z" fill="#FFC635"/>
<path d="M8.01538 11.3439C8.01541 12.4005 8.4352 13.4141 9.18237 14.1613C9.92955 14.9084 10.9431 15.3282 11.9998 15.3282C13.0564 15.3282 14.0699 14.9084 14.8171 14.1613C15.5643 13.4141 15.9841 12.4006 15.9841 11.3439H16.4998C16.4997 12.5371 16.026 13.6817 15.1824 14.5255C14.3385 15.3694 13.1932 15.8439 11.9998 15.8439C10.8063 15.8438 9.66199 15.3694 8.81812 14.5255C7.97425 13.6816 7.49978 12.5373 7.49976 11.3439H8.01538ZM9.51538 12.2345C10.2185 12.8438 11.1092 13.2188 11.9998 13.2189C12.9224 13.216 13.8099 12.8643 14.4841 12.2345C14.5779 12.1408 14.7654 12.1408 14.8591 12.2345C14.9529 12.3282 14.9529 12.5157 14.8123 12.6095C14.1092 13.2657 13.2184 13.6408 12.281 13.7345V14.5314H11.7185V13.7345C10.7811 13.6407 9.89034 13.2657 9.18726 12.6095C9.04677 12.5158 9.04678 12.3283 9.14038 12.2345L9.32788 12.1407L9.51538 12.2345Z" fill="#496E2D"/>
<path d="M13.9216 14.2032C13.3592 14.5782 12.7028 14.8126 11.9998 14.8126C11.3436 14.8126 10.6872 14.5782 10.1248 14.2032L10.406 13.7814C11.3435 14.3907 12.656 14.3906 13.5935 13.7814L13.9216 14.2032Z" fill="#338AF3"/>
<path d="M12.3279 8.15637C13.2185 8.15637 15.6091 8.53137 15.1873 12.422C14.6717 12.1876 14.2966 11.7188 14.1091 11.2032L12.7966 10.4532L13.031 11.4376L14.6716 12.422L13.5935 12.9376L13.0779 12.422V12.9376L12.2341 12.0939L10.8748 12.422L11.4841 11.3439L11.2966 10.9689C11.0623 10.5471 11.1561 10.0782 11.4841 9.75012C11.4841 9.46887 11.2498 9.2345 10.9685 9.2345V8.71887C11.5779 8.71887 12.1873 9.047 12.4216 9.56262L12.5154 9.75012C12.5623 9.70325 13.031 8.672 11.9998 8.15637H12.3279Z" fill="#584528"/>
<path d="M10.2185 9.14075C10.1249 9.14086 10.1248 9.23455 10.1248 9.32825C10.1252 9.32909 10.1722 9.42189 10.2654 9.422C10.5935 9.422 10.9216 9.6095 11.0154 9.84387C11.0623 9.98451 11.1091 10.2658 10.781 10.547C10.453 10.875 10.2654 11.1095 10.3591 11.2501L10.5935 11.297C10.8279 11.3907 11.2498 11.5314 11.2029 12.0939C11.156 12.4688 10.8278 12.7032 10.406 12.7032C9.70293 12.7032 8.85913 12.1406 8.62476 10.8282L9.14038 10.7345C9.32787 11.8124 9.98413 12.1875 10.406 12.1876C10.5466 12.1876 10.6404 12.1407 10.6873 12.047C10.6873 11.9532 10.6873 11.9064 10.406 11.8126C10.2654 11.7658 10.0778 11.7188 9.93726 11.5782C9.46862 11.0158 10.1247 10.4533 10.4529 10.172C10.4998 10.1251 10.5466 10.0782 10.4998 10.0314C10.4976 10.0292 10.4044 9.93762 10.2654 9.93762C9.93736 9.93756 9.70287 9.75004 9.60913 9.422C9.5154 9.1408 9.70297 8.81264 9.98413 8.62512L10.2185 9.14075Z" fill="#6DA544"/>
<path d="M10.1248 14.7657C10.3319 14.7657 10.4998 14.9336 10.4998 15.1407C10.4997 15.3478 10.3318 15.5157 10.1248 15.5157C9.91776 15.5157 9.74981 15.3478 9.74976 15.1407C9.74976 14.9337 9.91773 14.7658 10.1248 14.7657ZM13.9216 14.7657C14.1287 14.7657 14.2966 14.9336 14.2966 15.1407C14.2966 15.3478 14.1287 15.5157 13.9216 15.5157C13.7146 15.5157 13.5467 15.3478 13.5466 15.1407C13.5466 14.9337 13.7146 14.7658 13.9216 14.7657ZM8.85913 13.7814C9.06624 13.7814 9.23413 13.9493 9.23413 14.1564C9.23408 14.3634 9.06621 14.5314 8.85913 14.5314C8.65213 14.5313 8.48418 14.3634 8.48413 14.1564C8.48413 13.9493 8.6521 13.7815 8.85913 13.7814ZM15.1873 13.7814C15.3944 13.7814 15.5623 13.9493 15.5623 14.1564C15.5622 14.3634 15.3943 14.5314 15.1873 14.5314C14.9803 14.5313 14.8123 14.3634 14.8123 14.1564C14.8123 13.9493 14.9802 13.7815 15.1873 13.7814ZM8.06226 12.5157C8.26936 12.5157 8.43726 12.6836 8.43726 12.8907C8.43721 13.0978 8.26933 13.2657 8.06226 13.2657C7.85526 13.2657 7.68731 13.0978 7.68726 12.8907C7.68726 12.6837 7.85523 12.5158 8.06226 12.5157ZM15.9841 12.5157C16.1912 12.5157 16.3591 12.6836 16.3591 12.8907C16.3591 13.0978 16.1912 13.2657 15.9841 13.2657C15.7771 13.2657 15.6092 13.0978 15.6091 12.8907C15.6091 12.6837 15.7771 12.5158 15.9841 12.5157ZM11.2966 9.00012C11.3786 9.08211 11.3894 9.23619 11.2966 9.30481L10.406 9.75012V9.2345L10.9685 8.71887L11.2966 9.00012Z" fill="#FFC635"/>
<path d="M12.281 14.0157C12.5658 14.0157 12.7966 14.2466 12.7966 14.5314C12.7966 14.8161 12.5657 15.047 12.281 15.047H11.7185C11.4338 15.0469 11.2029 14.816 11.2029 14.5314C11.2029 14.2467 11.4338 14.0158 11.7185 14.0157H12.281Z" fill="#FF9811"/>
</svg>
