<svg width="24" height="24" viewBox="0 0 24 24" fill="none" xmlns="http://www.w3.org/2000/svg">
<circle cx="12" cy="12" r="12" fill="#0052B4"/>
<path d="M21.5359 4.71417L14.2501 12L21.5359 19.2858C20.8887 20.1315 20.1316 20.8887 19.2859 21.5358L12.0001 14.25L4.71423 21.5358C3.86851 20.8887 3.11139 20.1315 2.46423 19.2858L9.75005 12L2.46423 4.71417C3.11139 3.86845 3.86851 3.11133 4.71423 2.46417L12.0001 9.74999L19.2859 2.46417C20.1316 3.11133 20.8887 3.86845 21.5359 4.71417Z" fill="#EEEEEE"/>
<path d="M13.5001 0.0927843C14.0107 0.156463 14.5114 0.252227 15.0001 0.377998L15.0001 8.99997L23.622 8.99997C23.7478 9.48861 23.8435 9.98931 23.9072 10.5L22.5001 12L23.9072 13.5C23.8435 14.0106 23.7478 14.5113 23.622 15L15.0001 15L15.0001 23.6219C14.5114 23.7477 14.0107 23.8434 13.5001 23.9071L12.0001 22.5L10.5001 23.9071C9.9894 23.8434 9.4887 23.7477 9.00006 23.6219L9.00006 15L0.378116 15C0.252345 14.5113 0.15658 14.0106 0.0929008 13.5L1.50006 12L0.0928949 10.5C0.156572 9.98931 0.252335 9.48862 0.378104 8.99997L9.00006 8.99997L9.00006 0.377998C9.4887 0.252227 9.9894 0.156463 10.5001 0.0927844L12.0001 1.49997L13.5001 0.0927843Z" fill="#EEEEEE"/>
<path d="M13.5 0.0928396C13.0162 0.0325159 12.5236 0.000987459 12.0237 2.23626e-05L11.9763 2.23647e-05C11.4764 0.000987505 10.9837 0.032516 10.5 0.0928397L10.5 10.5L0.0928372 10.5C0.0315634 10.9914 -5.46741e-07 11.492 -5.24537e-07 12C-5.02331e-07 12.508 0.0315655 13.0086 0.092843 13.5L10.5 13.5L10.5 23.9072C10.9914 23.9684 11.492 24 12 24C12.508 24 13.0086 23.9684 13.5 23.9072L13.5 13.5L23.9072 13.5C23.9684 13.0086 24 12.508 24 12C24 11.492 23.9684 10.9914 23.9072 10.5L13.5 10.5L13.5 0.0928396Z" fill="#D80027"/>
<path d="M9.00024 16.5002L4.29907 21.2024C4.02738 20.9748 3.76534 20.736 3.51489 20.4856L9.00024 15.0002V16.5002ZM21.2014 19.7014C20.9739 19.9729 20.7359 20.2353 20.4856 20.4856L15.0002 15.0002H16.5002L21.2014 19.7014ZM9.00024 9.00024H7.50024L2.79907 4.29907C3.02657 4.02755 3.26459 3.7652 3.51489 3.51489L9.00024 9.00024ZM19.7014 2.80005C19.9728 3.02743 20.2355 3.26474 20.4856 3.51489L15.0002 9.00024V7.50024L19.7014 2.80005Z" fill="#D80027"/>
</svg>
