<svg width="24" height="24" viewBox="0 0 24 24" fill="none" xmlns="http://www.w3.org/2000/svg">
<path d="M22.3945 6C23.4156 7.76504 24 9.81428 24 12C24 14.1857 23.4156 16.235 22.3945 18H1.60547C0.584449 16.235 0 14.1857 0 12C2.54971e-07 9.81428 0.584448 7.76504 1.60547 6H22.3945Z" fill="#0052B4"/>
<path d="M22.7939 17.25C20.8471 21.2452 16.7468 23.9984 12.0039 24H11.9961C7.25319 23.9984 3.15292 21.2452 1.20605 17.25H22.7939Z" fill="#D80027"/>
<path d="M12 0C16.7447 1.93718e-06 20.8465 2.75365 22.7939 6.75H1.20605C3.1535 2.75365 7.25532 0 12 0Z" fill="#FFDA44"/>
<path d="M20.7827 14.3555L20.1489 14.8508L20.424 15.6065L19.7571 15.1568L19.1233 15.652L19.3449 14.8788L18.6781 14.429L19.482 14.4009L19.7038 13.6277L19.9789 14.3836L20.7827 14.3555Z" fill="#EEEEEE"/>
<path d="M19.1596 11.5444L18.7335 12.2266L19.2506 12.8426L18.4701 12.6483L18.0438 13.3303L17.9876 12.5279L17.2072 12.3333L17.953 12.0319L17.897 11.2295L18.4139 11.8458L19.1596 11.5444Z" fill="#EEEEEE"/>
<path d="M16.6731 9.45789L16.506 10.2447L17.2025 10.6469L16.4026 10.7312L16.2354 11.5178L15.9082 10.783L15.1082 10.867L15.706 10.3288L15.3789 9.59406L16.0754 9.99615L16.6731 9.45789Z" fill="#EEEEEE"/>
<path d="M13.6228 8.34778L13.7349 9.14433L14.527 9.28392L13.8041 9.6367L13.916 10.4332L13.3573 9.85458L12.6342 10.2072L13.0119 9.49687L12.4531 8.91834L13.2453 9.05798L13.6228 8.34778Z" fill="#EEEEEE"/>
<path d="M10.377 8.34778L10.7547 9.05798L11.5466 8.91825L10.988 9.49701L11.3655 10.2073L10.6426 9.85458L10.0838 10.4331L10.1959 9.6367L9.4729 9.28411L10.265 9.14433L10.377 8.34778Z" fill="#EEEEEE"/>
<path d="M7.32675 9.45789L7.92459 9.99615L8.62102 9.59406L8.29397 10.3291L8.89167 10.8672L8.09175 10.783L7.76447 11.5178L7.59745 10.7311L6.79749 10.6471L7.49405 10.2448L7.32675 9.45789Z" fill="#EEEEEE"/>
<path d="M4.84022 11.5444L5.58614 11.8457L6.10298 11.2296L6.04706 12.0322L6.79275 12.3335L6.01232 12.528L5.95612 13.3303L5.53003 12.6483L4.74951 12.8428L5.26654 12.2266L4.84022 11.5444Z" fill="#EEEEEE"/>
<path d="M3.21716 14.3555L4.02116 14.3835L4.29613 13.6278L4.51808 14.4011L5.32185 14.4291L4.65501 14.8789L4.87663 15.6521L4.24288 15.1569L3.57599 15.6066L3.8511 14.8508L3.21716 14.3555Z" fill="#EEEEEE"/>
</svg>
